<?xml version="1.0" standalone="no"?>
<!DOCTYPE svg PUBLIC "-//W3C//DTD SVG 20010904//EN"
 "http://www.w3.org/TR/2001/REC-SVG-20010904/DTD/svg10.dtd">
<svg version="1.0" xmlns="http://www.w3.org/2000/svg"
 width="96.000000pt" height="96.000000pt" viewBox="0 0 96.000000 96.000000"
 preserveAspectRatio="xMidYMid meet">
<metadata>
Created by potrace 1.14, written by Peter Selinger 2001-2017
</metadata>
<g transform="translate(0.000000,96.000000) scale(0.100000,-0.100000)"
fill="#000000" stroke="none">
<path d="M394 929 c-23 -11 -60 -40 -82 -65 -30 -32 -48 -44 -69 -44 -70 0
-168 -72 -188 -139 -11 -37 -7 -113 9 -158 13 -36 13 -46 -1 -84 -49 -142 23
-270 168 -297 36 -7 55 -18 83 -50 99 -110 233 -108 334 3 30 33 49 45 69 45
32 0 109 33 136 58 56 51 76 165 43 244 -14 33 -14 41 0 80 51 141 -21 269
-167 296 -36 7 -55 18 -83 50 -72 79 -169 103 -252 61z m180 -57 c22 -15 39
-31 38 -37 -1 -5 -29 -15 -64 -22 -50 -11 -76 -11 -128 -2 -36 7 -69 16 -73
20 -11 9 53 58 90 69 41 13 93 3 137 -28z m-329 -109 c-4 -10 -15 -41 -24 -68
-9 -30 -36 -74 -66 -108 -47 -55 -50 -57 -56 -35 -25 88 5 164 83 202 61 31
73 32 63 9z m145 7 c9 -6 10 -10 3 -10 -7 0 -35 -14 -64 -30 -28 -17 -53 -29
-56 -27 -2 3 4 21 13 41 16 31 22 36 53 36 20 0 43 -5 51 -10z m284 -26 c21
-45 15 -52 -21 -27 -15 11 -43 25 -61 33 -40 16 -26 30 29 30 31 0 37 -5 53
-36z m122 1 c56 -33 79 -85 69 -161 l-7 -58 -51 59 c-32 36 -58 78 -68 109 -9
28 -20 59 -24 70 -7 16 -5 17 16 11 13 -4 42 -18 65 -30z m-216 -40 c36 -18
83 -49 105 -68 l39 -34 0 -123 0 -123 -39 -34 c-44 -38 -100 -71 -164 -96
l-44 -18 -81 39 c-45 22 -99 55 -121 74 l-39 35 0 123 0 123 38 33 c43 37 123
85 171 102 36 12 51 9 135 -33z m-390 -232 l0 -77 -31 42 -30 42 26 35 c15 19
29 35 31 35 2 0 4 -35 4 -77z m625 27 c12 -23 11 -29 -16 -65 l-29 -39 0 78
c0 70 2 77 16 65 8 -7 21 -24 29 -39z m52 -133 c8 -72 -24 -129 -93 -163 -30
-15 -56 -25 -58 -23 -13 13 46 143 82 184 23 26 42 53 42 58 0 8 4 7 11 0 6
-6 14 -32 16 -56z m-707 1 c25 -30 52 -74 61 -103 9 -27 20 -58 24 -67 6 -15
3 -16 -24 -8 -80 23 -131 82 -131 152 0 39 10 78 19 78 3 0 26 -23 51 -52z
m518 -143 c-22 -45 -23 -46 -70 -44 -26 2 -48 6 -48 11 0 4 4 8 10 8 5 0 35
16 67 35 32 19 59 34 60 35 2 0 -7 -20 -19 -45z m-370 17 c15 -10 42 -24 60
-32 40 -16 26 -30 -29 -30 -31 0 -37 5 -52 35 -25 53 -22 57 21 27z m245 -96
c32 -6 58 -16 59 -21 1 -6 -17 -23 -40 -39 -59 -42 -125 -42 -184 0 -23 16
-41 33 -40 39 1 9 86 31 127 33 11 0 46 -5 78 -12z"/>
<path d="M434 688 c-12 -13 -29 -43 -38 -68 -13 -34 -28 -53 -61 -74 -64 -40
-80 -112 -32 -137 12 -7 85 -11 185 -11 160 0 166 1 182 22 13 18 15 31 9 58
-8 35 -26 55 -81 89 -14 9 -28 28 -31 42 -17 82 -91 126 -133 79z m63 -169
c15 -15 5 -39 -17 -39 -22 0 -32 24 -17 39 6 6 14 11 17 11 3 0 11 -5 17 -11z
m-127 -43 c0 -27 -4 -34 -17 -31 -10 2 -21 4 -25 4 -13 2 -9 24 9 43 24 27 33
22 33 -16z m254 15 c19 -21 12 -51 -14 -51 -13 0 -19 10 -22 35 -4 39 9 46 36
16z"/>
<path d="M421 361 c-12 -8 -10 -17 14 -51 36 -52 42 -56 65 -35 29 26 51 78
37 87 -17 11 -99 10 -116 -1z"/>
</g>
</svg>
